<?xml version="1.0" encoding="UTF-8" standalone="no"?> <svg width="64" height="64" viewBox="0 0 64 64" fill="none" xmlns="http://www.w3.org/2000/svg">
<path d="M60.92 29.9099C60.909 29.7771 60.8716 29.6479 60.81 29.5299C60.776 29.4723 60.7358 29.4186 60.69 29.3699C60.6633 29.3275 60.6332 29.2874 60.6 29.2499V29.2499H60.55L60.46 29.1799L60.32 29.1199H60.22C60.1072 29.0825 59.9887 29.0656 59.87 29.0699H59.56C59.0894 29.078 58.622 28.9912 58.1857 28.8145C57.7495 28.6379 57.3533 28.3751 57.021 28.0418C56.6886 27.7085 56.4269 27.3116 56.2515 26.8749C56.0761 26.4381 55.9905 25.9704 56 25.4999C55.9986 24.8985 56.15 24.3067 56.44 23.7799V23.7799C56.4448 23.7233 56.4448 23.6664 56.44 23.6099C56.4629 23.5483 56.4796 23.4847 56.49 23.4199C56.4961 23.3567 56.4961 23.2931 56.49 23.2299C56.4968 23.1007 56.4579 22.9732 56.38 22.8699C56.3556 22.8104 56.3254 22.7535 56.29 22.6999C56.2445 22.6517 56.1942 22.6081 56.14 22.5699C56.0971 22.5256 56.0503 22.4855 56 22.4499V22.4499C55.2302 22.0609 54.5629 21.4961 54.0521 20.8011C53.5413 20.1062 53.2014 19.3007 53.06 18.4499C53.0618 18.4166 53.0618 18.3832 53.06 18.3499C53.0618 18.3166 53.0618 18.2832 53.06 18.2499C53.0447 18.2224 53.028 18.1957 53.01 18.1699C52.9798 18.1062 52.9429 18.0458 52.9 17.9899L52.78 17.8699L52.61 17.7499L52.45 17.6799H52.26H51.96H51.87H51.77C51.2052 17.8962 50.6048 18.0047 50 17.9999C48.938 17.9986 47.9041 17.6592 47.0479 17.0309C46.1917 16.4026 45.5579 15.518 45.2381 14.5053C44.9184 13.4926 44.9294 12.4044 45.2695 11.3984C45.6097 10.3923 46.2613 9.52073 47.13 8.90987V8.90987C47.1714 8.88208 47.2084 8.84839 47.24 8.80987C47.2665 8.78613 47.29 8.75926 47.31 8.72987L47.36 8.65987C47.3629 8.63997 47.3629 8.61976 47.36 8.59987C47.3621 8.57992 47.3621 8.55981 47.36 8.53987C47.3648 8.5067 47.3648 8.47303 47.36 8.43987C47.36 8.43987 47.36 8.43987 47.36 8.43987C47.3715 8.36363 47.3715 8.2861 47.36 8.20987C47.36 8.20987 47.36 8.15987 47.36 8.12987C47.3648 8.0733 47.3648 8.01643 47.36 7.95987V7.95987C47.3411 7.895 47.3177 7.83152 47.29 7.76987L47.21 7.64987C47.1822 7.60851 47.1485 7.57145 47.11 7.53987C47.0863 7.51339 47.0594 7.48988 47.03 7.46987L46.96 7.41987H46.9C43.2255 5.19528 39.1027 3.81475 34.8295 3.37805C30.5562 2.94135 26.2394 3.45937 22.1908 4.89469C18.1423 6.33001 14.4631 8.64678 11.4192 11.6776C8.37535 14.7084 6.04276 18.3775 4.59002 22.4199C4.58575 22.4698 4.58575 22.52 4.59002 22.5699C4.53466 22.7741 4.54549 22.9906 4.62096 23.1882C4.69643 23.3859 4.83265 23.5545 5.01002 23.6699C5.39019 23.8518 5.8001 23.9636 6.22002 23.9999C7.96002 24.4399 9.94002 23.6799 11.85 22.9999C14.35 21.9999 16.06 21.4799 17.11 22.4799C18.16 23.4799 17.7 25.2099 16.88 27.7499C16.06 30.2899 15.13 33.1599 17.17 35.0899C17.8418 35.7368 18.7281 36.1141 19.66 36.1499C19.7731 36.1595 19.8869 36.1595 20 36.1499H20.48C20.6181 36.1404 20.7528 36.1024 20.8754 36.0382C20.9981 35.974 21.1061 35.885 21.1926 35.7769C21.279 35.6688 21.3421 35.5439 21.3778 35.4102C21.4136 35.2764 21.4211 35.1367 21.4 34.9999C21.4047 34.9366 21.4047 34.8731 21.4 34.8099C21.1494 33.8937 21.015 32.9496 21 31.9999C21.0009 29.7318 21.7028 27.5194 23.0097 25.6657C24.3166 23.812 26.1646 22.4076 28.3005 21.6448C30.4365 20.882 32.756 20.7981 34.9415 21.4046C37.127 22.0111 39.0716 23.2784 40.509 25.0328C41.9464 26.7873 42.8063 28.9432 42.971 31.2053C43.1357 33.4674 42.5971 35.7251 41.429 37.6692C40.2609 39.6134 38.5204 41.1489 36.4458 42.0656C34.3712 42.9823 32.0639 43.2352 29.84 42.7899H29.64C29.3832 42.7895 29.1362 42.888 28.95 43.0649C28.7639 43.2417 28.6529 43.4834 28.64 43.7399C28.6196 44.0162 28.6196 44.2936 28.64 44.5699C28.7233 45.499 29.1471 46.3644 29.83 46.9999C31.83 48.9399 34.69 47.8599 37.18 46.8999C39.67 45.9399 41.39 45.3899 42.43 46.3899C43.47 47.3899 43.02 49.1199 42.2 51.6699C41.58 53.5899 40.94 55.5699 41.44 57.2699C41.5619 57.6784 41.7512 58.0637 42 58.4099C42.0919 58.5423 42.2145 58.6506 42.3573 58.7255C42.5 58.8004 42.6588 58.8396 42.82 58.8399C42.9098 58.8497 43.0003 58.8497 43.09 58.8399L43.26 58.7699C48.5213 56.546 53.0102 52.8205 56.1655 48.0591C59.3208 43.2977 61.0024 37.7118 61 31.9999C61 31.2099 61 30.5199 60.92 29.9099Z" fill="url(#paint0_linear)"/>
<path d="M43.81 44.9999C41.81 43.0599 38.95 44.1399 36.46 45.0999C33.97 46.0599 32.25 46.6099 31.21 45.6099C31.0143 45.4387 30.8633 45.2225 30.77 44.9799C30.6324 44.6026 30.5778 44.2001 30.61 43.7999C30.6161 43.5701 30.5429 43.3452 30.4027 43.163C30.2624 42.9809 30.0637 42.8527 29.84 42.7999H29.78C27.7699 42.3847 25.9161 41.4155 24.4281 40.0017C22.9401 38.588 21.8774 36.7861 21.36 34.7999C21.2995 34.5836 21.168 34.3939 20.9866 34.2615C20.8052 34.1291 20.5844 34.0616 20.36 34.0699C19.957 34.1457 19.5416 34.1217 19.15 33.9999C18.926 33.9158 18.7217 33.7864 18.55 33.6199C17.55 32.6199 17.96 30.8899 18.78 28.3399C19.6 25.7899 20.52 22.9399 18.49 20.9999C16.46 19.0599 13.62 20.1499 11.14 21.1099C9.55 21.7199 8.03 22.3099 6.9 22.1099C6.6328 22.0777 6.37637 21.9854 6.15 21.8399C5.92711 21.697 5.65668 21.6484 5.39799 21.7046C5.1393 21.7609 4.91347 21.9174 4.77 22.1399C4.74281 22.181 4.71938 22.2245 4.7 22.2699C4.69573 22.3198 4.69573 22.37 4.7 22.4199C3.59166 25.493 3.01671 28.733 3 31.9999C2.99969 36.7656 4.17392 41.458 6.41881 45.662C8.66369 49.8659 11.91 53.4518 15.8707 56.1025C19.8313 58.7531 24.3842 60.3868 29.1265 60.859C33.8688 61.3312 38.6544 60.6274 43.06 58.8099L43.23 58.7399L43.36 58.6599C43.5772 58.5085 43.7255 58.2771 43.7723 58.0165C43.8192 57.756 43.7608 57.4875 43.61 57.2699C43.4516 57.0399 43.3489 56.7763 43.31 56.4999C43.271 55.0596 43.5404 53.6276 44.1 52.2999C44.92 49.7699 45.85 46.8899 43.81 44.9999Z" fill="url(#paint1_linear)"/>
<path d="M20.21 9.79006C20.0226 9.60381 19.7692 9.49927 19.505 9.49927C19.2408 9.49927 18.9873 9.60381 18.8 9.79006L16.3 12.2901C16.1953 12.3797 16.1103 12.49 16.0503 12.6141C15.9902 12.7382 15.9565 12.8733 15.9512 13.011C15.9459 13.1487 15.9691 13.2861 16.0193 13.4144C16.0696 13.5427 16.1459 13.6593 16.2433 13.7567C16.3408 13.8542 16.4573 13.9304 16.5857 13.9807C16.714 14.031 16.8513 14.0542 16.989 14.0489C17.1268 14.0435 17.2619 14.0098 17.386 13.9498C17.51 13.8898 17.6203 13.8047 17.71 13.7001L20.21 11.2001C20.3962 11.0127 20.5008 10.7592 20.5008 10.4951C20.5008 10.2309 20.3962 9.97742 20.21 9.79006V9.79006Z" fill="url(#paint2_linear)"/>
<path d="M29.4499 14.1099L25.4499 12.1099C25.3319 12.0466 25.2023 12.0077 25.069 11.9954C24.9356 11.9831 24.8012 11.9978 24.6736 12.0384C24.546 12.0791 24.4279 12.145 24.3262 12.2322C24.2246 12.3194 24.1415 12.4261 24.0819 12.546C24.0222 12.6659 23.9873 12.7966 23.9792 12.9302C23.971 13.0639 23.9898 13.1979 24.0343 13.3241C24.0789 13.4504 24.1484 13.5664 24.2387 13.6654C24.329 13.7643 24.4382 13.844 24.5599 13.8999L28.5599 15.8999C28.7961 16.0084 29.0652 16.0207 29.3102 15.9342C29.5553 15.8476 29.757 15.6691 29.8727 15.4364C29.9884 15.2037 30.009 14.9351 29.9301 14.6875C29.8511 14.4399 29.6789 14.2328 29.4499 14.1099V14.1099Z" fill="url(#paint3_linear)"/>
<path d="M35.71 13.29C35.5187 13.1262 35.2727 13.0406 35.021 13.0503C34.7693 13.06 34.5306 13.1644 34.3525 13.3425C34.1744 13.5205 34.07 13.7593 34.0603 14.011C34.0506 14.2626 34.1362 14.5087 34.3 14.7L36.3 16.7C36.4913 16.8638 36.7374 16.9494 36.9891 16.9397C37.2408 16.93 37.4795 16.8257 37.6576 16.6476C37.8357 16.4695 37.94 16.2307 37.9497 15.9791C37.9595 15.7274 37.8739 15.4813 37.71 15.29L35.71 13.29Z" fill="url(#paint4_linear)"/>
<path d="M37 9C37 8.73478 36.8946 8.48043 36.7071 8.29289C36.5196 8.10536 36.2652 8 36 8H32C31.7348 8 31.4804 8.10536 31.2929 8.29289C31.1054 8.48043 31 8.73478 31 9C31 9.26522 31.1054 9.51957 31.2929 9.70711C31.4804 9.89464 31.7348 10 32 10H36C36.2652 10 36.5196 9.89464 36.7071 9.70711C36.8946 9.51957 37 9.26522 37 9Z" fill="url(#paint5_linear)"/>
<path d="M47 25C47.1987 25.0012 47.3931 24.9432 47.5586 24.8333C47.7242 24.7235 47.8532 24.5669 47.9294 24.3835C48.0056 24.2001 48.0254 23.9981 47.9863 23.8033C47.9472 23.6086 47.8511 23.4299 47.71 23.29L45.71 21.29C45.5187 21.1262 45.2727 21.0406 45.021 21.0503C44.7693 21.06 44.5306 21.1644 44.3525 21.3425C44.1744 21.5205 44.07 21.7593 44.0603 22.011C44.0506 22.2626 44.1362 22.5087 44.3 22.7L46.3 24.7C46.4847 24.8884 46.7363 24.9963 47 25V25Z" fill="url(#paint6_linear)"/>
<path d="M55.71 30.2901C55.5226 30.1038 55.2692 29.9993 55.005 29.9993C54.7408 29.9993 54.4873 30.1038 54.3 30.2901L52.3 32.2901C52.1953 32.3797 52.1103 32.49 52.0503 32.6141C51.9902 32.7382 51.9565 32.8733 51.9512 33.011C51.9459 33.1487 51.9691 33.2861 52.0193 33.4144C52.0696 33.5427 52.1459 33.6593 52.2433 33.7567C52.3408 33.8542 52.4573 33.9304 52.5857 33.9807C52.714 34.031 52.8513 34.0542 52.989 34.0489C53.1268 34.0435 53.2619 34.0098 53.386 33.9498C53.51 33.8898 53.6203 33.8047 53.71 33.7001L55.71 31.7001C55.8962 31.5127 56.0008 31.2592 56.0008 30.9951C56.0008 30.7309 55.8962 30.4774 55.71 30.2901Z" fill="url(#paint7_linear)"/>
<path d="M49.71 39.71C49.8963 39.5227 50.0008 39.2692 50.0008 39.005C50.0008 38.7408 49.8963 38.4874 49.71 38.3L47.71 36.3C47.5187 36.1362 47.2727 36.0506 47.021 36.0603C46.7693 36.07 46.5306 36.1744 46.3525 36.3525C46.1744 36.5306 46.07 36.7693 46.0603 37.021C46.0506 37.2727 46.1362 37.5187 46.3 37.71L48.3 39.71C48.4874 39.8963 48.7408 40.0008 49.005 40.0008C49.2692 40.0008 49.5227 39.8963 49.71 39.71Z" fill="url(#paint8_linear)"/>
<path d="M50 47C49.7348 47 49.4804 47.1054 49.2929 47.2929C49.1054 47.4804 49 47.7348 49 48V50C49 50.2652 49.1054 50.5196 49.2929 50.7071C49.4804 50.8946 49.7348 51 50 51C50.2652 51 50.5196 50.8946 50.7071 50.7071C50.8946 50.5196 51 50.2652 51 50V48C51 47.7348 50.8946 47.4804 50.7071 47.2929C50.5196 47.1054 50.2652 47 50 47Z" fill="url(#paint9_linear)"/>
<path d="M54 42H50C49.7348 42 49.4804 42.1054 49.2929 42.2929C49.1054 42.4804 49 42.7348 49 43C49 43.2652 49.1054 43.5196 49.2929 43.7071C49.4804 43.8946 49.7348 44 50 44H54C54.2652 44 54.5196 43.8946 54.7071 43.7071C54.8946 43.5196 55 43.2652 55 43C55 42.7348 54.8946 42.4804 54.7071 42.2929C54.5196 42.1054 54.2652 42 54 42Z" fill="url(#paint10_linear)"/>
<path d="M21 18C20.7348 18 20.4804 18.1054 20.2929 18.2929C20.1054 18.4804 20 18.7348 20 19V23C20 23.2652 20.1054 23.5196 20.2929 23.7071C20.4804 23.8946 20.7348 24 21 24C21.2652 24 21.5196 23.8946 21.7071 23.7071C21.8946 23.5196 22 23.2652 22 23V19C22 18.7348 21.8946 18.4804 21.7071 18.2929C21.5196 18.1054 21.2652 18 21 18Z" fill="url(#paint11_linear)"/>
<path d="M60.9999 32C60.9999 31.21 60.9999 30.53 60.9199 29.91C60.9044 29.8235 60.8775 29.7394 60.8399 29.66C60.842 29.6233 60.842 29.5866 60.8399 29.55C60.7296 29.3412 60.5489 29.1783 60.3299 29.09H60.2699C60.2034 29.0833 60.1364 29.0833 60.0699 29.09C60.0101 29.0846 59.9498 29.0846 59.8899 29.09H59.5399C59.0693 29.0955 58.6023 29.0061 58.1671 28.827C57.7318 28.6479 57.3371 28.3828 57.0066 28.0477C56.6761 27.7125 56.4166 27.3142 56.2437 26.8764C56.0707 26.4387 55.9878 25.9705 55.9999 25.5C55.9986 24.8986 56.15 24.3068 56.4399 23.78V23.78C56.4448 23.7234 56.4448 23.6665 56.4399 23.61C56.4628 23.5484 56.4796 23.4848 56.4899 23.42C56.496 23.3568 56.496 23.2932 56.4899 23.23C56.4968 23.1008 56.4578 22.9733 56.3799 22.87C56.3555 22.8106 56.3253 22.7536 56.2899 22.7C56.2444 22.6518 56.1941 22.6082 56.1399 22.57C56.0971 22.5258 56.0502 22.4856 55.9999 22.45V22.45C55.2301 22.061 54.5628 21.4962 54.052 20.8013C53.5412 20.1063 53.2013 19.3008 53.0599 18.45C53.0617 18.4167 53.0617 18.3833 53.0599 18.35C53.0617 18.3167 53.0617 18.2833 53.0599 18.25C53.0447 18.2225 53.028 18.1958 53.0099 18.17C52.9797 18.1063 52.9429 18.0459 52.8999 17.99L52.7799 17.87L52.6099 17.75L52.4499 17.68H52.2599H51.9599H51.8699H51.7699C51.2051 17.8963 50.6048 18.0048 49.9999 18C48.938 17.9987 47.904 17.6593 47.0478 17.031C46.1917 16.4027 45.5578 15.5181 45.238 14.5054C44.9183 13.4927 44.9293 12.4045 45.2695 11.3985C45.6096 10.3924 46.2612 9.52084 47.1299 8.90998V8.90998C47.1857 8.8623 47.236 8.80865 47.2799 8.74998C47.3237 8.71027 47.3639 8.66677 47.3999 8.61998V8.61998C47.4017 8.58667 47.4017 8.55329 47.3999 8.51998C47.4418 8.43787 47.4721 8.35038 47.4899 8.25998C47.496 8.19679 47.496 8.13317 47.4899 8.06998C47.496 8.00679 47.496 7.94317 47.4899 7.87998C47.4649 7.792 47.4279 7.70789 47.3799 7.62998C47.3817 7.59667 47.3817 7.56329 47.3799 7.52998V7.52998C47.3349 7.47829 47.2846 7.43138 47.2299 7.38998C47.1875 7.34227 47.1406 7.29874 47.0899 7.25998V7.25998C43.2672 4.9221 38.9548 3.50186 34.491 3.11071C30.0272 2.71955 25.5334 3.36812 21.3624 5.00552C17.1914 6.64292 13.4565 9.22461 10.4509 12.548C7.44527 15.8714 5.25067 19.8461 4.0393 24.1601C2.82792 28.4742 2.63273 33.0103 3.46903 37.4125C4.30534 41.8147 6.15039 45.9632 8.8594 49.5325C11.5684 53.1017 15.0677 55.9947 19.0827 57.9844C23.0976 59.974 27.519 61.0062 31.9999 61C35.8022 61.0042 39.5677 60.2565 43.0799 58.8V58.8C48.3835 56.6073 52.9173 52.8903 56.1072 48.1196C59.2972 43.3489 61 37.7389 60.9999 32V32ZM31.9999 4.99998C36.4892 4.99899 40.9072 6.12325 44.8499 8.26998C43.8572 9.35951 43.2338 10.7346 43.0684 12.1993C42.9031 13.6639 43.2043 15.1434 43.9291 16.4268C44.654 17.7102 45.7654 18.7321 47.1051 19.3468C48.4448 19.9614 49.9443 20.1375 51.3899 19.85C51.9106 21.4236 52.9373 22.7808 54.3099 23.71C54.0283 24.4987 53.9315 25.3416 54.0271 26.1736C54.1227 27.0057 54.408 27.8047 54.8611 28.509C55.3143 29.2134 55.9231 29.8042 56.6407 30.2361C57.3582 30.668 58.1654 30.9293 58.9999 31C58.9999 31.32 58.9999 31.66 58.9999 32C58.9976 37.1545 57.5198 42.2006 54.7413 46.542C51.9627 50.8835 47.9995 54.3389 43.3199 56.5C43.2744 55.0601 43.5405 53.6275 44.0999 52.3C44.9199 49.76 45.8499 46.89 43.7999 44.95C41.7499 43.01 38.9399 44.1 36.4499 45.05C33.9599 46 32.2399 46.56 31.1999 45.57C31.0118 45.3904 30.8651 45.172 30.7699 44.93C31.1699 44.93 31.5799 44.99 31.9899 44.99C34.6781 45.012 37.308 44.2072 39.5234 42.6845C41.7388 41.1618 43.4325 38.9948 44.3751 36.4773C45.3177 33.9597 45.4636 31.2133 44.793 28.61C44.1224 26.0068 42.6678 23.6726 40.6261 21.9238C38.5845 20.175 36.0547 19.0961 33.3793 18.8332C30.704 18.5704 28.0125 19.1363 25.6696 20.4544C23.3266 21.7724 21.4455 23.7789 20.2811 26.2018C19.1167 28.6248 18.7253 31.3471 19.1599 34C18.9294 33.9171 18.7184 33.7877 18.5399 33.62C17.5399 32.62 17.9499 30.88 18.7699 28.34C19.5899 25.8 20.5099 22.93 18.4799 21C16.4499 19.07 13.6099 20.15 11.1299 21.11C9.53994 21.72 8.02994 22.29 6.89994 22.11C8.88431 17.0691 12.3392 12.7417 16.8155 9.69032C21.2918 6.63894 26.5825 5.00468 31.9999 4.99998V4.99998ZM20.9999 32C20.9999 29.8244 21.6451 27.6976 22.8538 25.8887C24.0625 24.0798 25.7804 22.6699 27.7904 21.8373C29.8004 21.0047 32.0121 20.7869 34.1459 21.2113C36.2797 21.6358 38.2397 22.6834 39.7781 24.2218C41.3165 25.7602 42.3641 27.7202 42.7886 29.854C43.213 31.9878 42.9952 34.1995 42.1626 36.2095C41.33 38.2195 39.9202 39.9374 38.1112 41.1461C36.3023 42.3548 34.1755 43 31.9999 43C29.0826 43 26.2847 41.8411 24.2218 39.7782C22.1589 37.7153 20.9999 34.9174 20.9999 32ZM4.99994 32C5.00102 29.2871 5.41234 26.5899 6.21994 24C7.95994 24.44 9.92994 23.7 11.8499 23C14.3399 22 16.0599 21.49 17.1099 22.48C18.1599 23.47 17.6899 25.21 16.8699 27.75C16.0499 30.29 15.1199 33.16 17.1599 35.09C17.8441 35.7096 18.7272 36.0643 19.6499 36.09C20.328 38.1396 21.5058 39.9881 23.0771 41.4686C24.6484 42.9491 26.5636 44.015 28.6499 44.57C28.7377 45.4957 29.1568 46.3585 29.8299 47C31.8299 48.94 34.6899 47.85 37.1799 46.9C39.6699 45.95 41.3899 45.39 42.4299 46.38C43.4699 47.37 43.0199 49.12 42.1999 51.66C41.5799 53.59 40.9599 55.56 41.4499 57.26C37.3683 58.785 32.9782 59.2996 28.6546 58.7597C24.3309 58.2198 20.2021 56.6416 16.6208 54.1597C13.0395 51.6778 10.112 48.3661 8.08841 44.5073C6.0648 40.6485 5.00514 36.3572 4.99994 32V32Z" fill="black"/>
<path d="M16.9999 14C17.1315 14.0008 17.2619 13.9756 17.3838 13.9258C17.5056 13.876 17.6164 13.8027 17.7099 13.71L20.2099 11.21C20.3737 11.0187 20.4593 10.7727 20.4496 10.521C20.4399 10.2693 20.3355 10.0306 20.1574 9.85246C19.9793 9.67437 19.7406 9.57004 19.4889 9.56032C19.2372 9.55059 18.9912 9.6362 18.7999 9.80003L16.2999 12.3C16.1628 12.4398 16.0698 12.6167 16.0324 12.8088C15.9949 13.001 16.0147 13.1999 16.0892 13.3809C16.1638 13.5619 16.2898 13.717 16.4517 13.8271C16.6135 13.9371 16.8041 13.9973 16.9999 14Z" fill="black"/>
<path d="M24.5499 13.8899L28.5499 15.8899C28.786 15.9984 29.0552 16.0107 29.3002 15.9242C29.5453 15.8376 29.747 15.6591 29.8627 15.4264C29.9784 15.1937 29.999 14.9251 29.9201 14.6775C29.8411 14.4299 29.6689 14.2227 29.4399 14.0999L25.4399 12.0999C25.3219 12.0366 25.1923 11.9977 25.059 11.9854C24.9256 11.9731 24.7912 11.9878 24.6636 12.0284C24.536 12.0691 24.4179 12.135 24.3162 12.2222C24.2146 12.3094 24.1315 12.4161 24.0719 12.536C24.0122 12.6559 23.9773 12.7866 23.9691 12.9202C23.961 13.0539 23.9797 13.1878 24.0243 13.3141C24.0689 13.4404 24.1384 13.5564 24.2287 13.6553C24.319 13.7543 24.4282 13.834 24.5499 13.8899V13.8899Z" fill="black"/>
<path d="M34.2898 13.2901C34.1036 13.4774 33.999 13.7309 33.999 13.9951C33.999 14.2592 34.1036 14.5127 34.2898 14.7001L36.2898 16.7001C36.4811 16.8639 36.7272 16.9495 36.9789 16.9398C37.2305 16.93 37.4693 16.8257 37.6474 16.6476C37.8255 16.4695 37.9298 16.2308 37.9395 15.9791C37.9493 15.7274 37.8636 15.4814 37.6998 15.2901L35.6998 13.2901C35.5125 13.1038 35.259 12.9993 34.9948 12.9993C34.7306 12.9993 34.4772 13.1038 34.2898 13.2901Z" fill="black"/>
<path d="M32 10H36C36.2652 10 36.5196 9.89464 36.7071 9.70711C36.8946 9.51957 37 9.26522 37 9C37 8.73478 36.8946 8.48043 36.7071 8.29289C36.5196 8.10536 36.2652 8 36 8H32C31.7348 8 31.4804 8.10536 31.2929 8.29289C31.1054 8.48043 31 8.73478 31 9C31 9.26522 31.1054 9.51957 31.2929 9.70711C31.4804 9.89464 31.7348 10 32 10Z" fill="black"/>
<path d="M46.29 24.71C46.4813 24.8739 46.7274 24.9595 46.9791 24.9497C47.2307 24.94 47.4695 24.8357 47.6476 24.6576C47.8257 24.4795 47.93 24.2408 47.9397 23.9891C47.9495 23.7374 47.8638 23.4913 47.7 23.3L45.7 21.3C45.5087 21.1362 45.2626 21.0506 45.011 21.0603C44.7593 21.07 44.5205 21.1744 44.3425 21.3525C44.1644 21.5306 44.06 21.7693 44.0503 22.021C44.0406 22.2726 44.1262 22.5187 44.29 22.71L46.29 24.71Z" fill="black"/>
<path d="M52.9999 34C53.1315 34.0008 53.2619 33.9756 53.3838 33.9258C53.5056 33.876 53.6164 33.8027 53.7099 33.71L55.7099 31.71C55.8737 31.5187 55.9593 31.2726 55.9496 31.021C55.9399 30.7693 55.8355 30.5306 55.6574 30.3525C55.4793 30.1744 55.2406 30.07 54.9889 30.0603C54.7372 30.0506 54.4912 30.1362 54.2999 30.3L52.2999 32.3C52.1628 32.4398 52.0698 32.6167 52.0324 32.8088C51.9949 33.001 52.0147 33.1999 52.0892 33.3809C52.1638 33.5619 52.2898 33.717 52.4517 33.8271C52.6135 33.9371 52.8041 33.9973 52.9999 34Z" fill="black"/>
<path d="M46.2898 36.2901C46.1036 36.4774 45.999 36.7309 45.999 36.9951C45.999 37.2592 46.1036 37.5127 46.2898 37.7001L48.2898 39.7001C48.4811 39.8639 48.7272 39.9495 48.9789 39.9398C49.2305 39.9301 49.4693 39.8257 49.6474 39.6476C49.8255 39.4695 49.9298 39.2308 49.9395 38.9791C49.9493 38.7274 49.8636 38.4814 49.6998 38.2901L47.6998 36.2901C47.5125 36.1038 47.259 35.9993 46.9948 35.9993C46.7306 35.9993 46.4772 36.1038 46.2898 36.2901Z" fill="black"/>
<path d="M50 47C49.7348 47 49.4804 47.1054 49.2929 47.2929C49.1054 47.4804 49 47.7348 49 48V50C49 50.2652 49.1054 50.5196 49.2929 50.7071C49.4804 50.8946 49.7348 51 50 51C50.2652 51 50.5196 50.8946 50.7071 50.7071C50.8946 50.5196 51 50.2652 51 50V48C51 47.7348 50.8946 47.4804 50.7071 47.2929C50.5196 47.1054 50.2652 47 50 47Z" fill="black"/>
<path d="M49 43C49 43.2652 49.1054 43.5196 49.2929 43.7071C49.4804 43.8946 49.7348 44 50 44H54C54.2652 44 54.5196 43.8946 54.7071 43.7071C54.8946 43.5196 55 43.2652 55 43C55 42.7348 54.8946 42.4804 54.7071 42.2929C54.5196 42.1054 54.2652 42 54 42H50C49.7348 42 49.4804 42.1054 49.2929 42.2929C49.1054 42.4804 49 42.7348 49 43Z" fill="black"/>
<path d="M20 19V23C20 23.2652 20.1054 23.5196 20.2929 23.7071C20.4804 23.8946 20.7348 24 21 24C21.2652 24 21.5196 23.8946 21.7071 23.7071C21.8946 23.5196 22 23.2652 22 23V19C22 18.7348 21.8946 18.4804 21.7071 18.2929C21.5196 18.1054 21.2652 18 21 18C20.7348 18 20.4804 18.1054 20.2929 18.2929C20.1054 18.4804 20 18.7348 20 19Z" fill="black"/>
<defs>
<linearGradient id="paint0_linear" x1="4.61002" y1="30.9199" x2="61" y2="30.9199" gradientUnits="userSpaceOnUse">
<stop stop-color="#703D04"/>
<stop offset="0.38" stop-color="#583003"/>
<stop offset="1" stop-color="#2A1702"/>
</linearGradient>
<linearGradient id="paint1_linear" x1="3" y1="40.4399" x2="45.04" y2="40.4399" gradientUnits="userSpaceOnUse">
<stop stop-color="#AC9430"/>
<stop offset="0.36" stop-color="#9F7C21"/>
<stop offset="1" stop-color="#834800"/>
</linearGradient>
<linearGradient id="paint2_linear" x1="16" y1="11.7501" x2="20.5" y2="11.7501" gradientUnits="userSpaceOnUse">
<stop stop-color="#FDFBF7"/>
<stop offset="0.35" stop-color="#F5F0DF"/>
<stop offset="1" stop-color="#E3D7A9"/>
</linearGradient>
<linearGradient id="paint3_linear" x1="167.977" y1="67.9912" x2="203.977" y2="67.9912" gradientUnits="userSpaceOnUse">
<stop stop-color="#FDFBF7"/>
<stop offset="0.35" stop-color="#F5F0DF"/>
<stop offset="1" stop-color="#E3D7A9"/>
</linearGradient>
<linearGradient id="paint4_linear" x1="166.351" y1="71.4133" x2="181.914" y2="71.4133" gradientUnits="userSpaceOnUse">
<stop stop-color="#FDFBF7"/>
<stop offset="0.35" stop-color="#F5F0DF"/>
<stop offset="1" stop-color="#E3D7A9"/>
</linearGradient>
<linearGradient id="paint5_linear" x1="217" y1="26" x2="253" y2="26" gradientUnits="userSpaceOnUse">
<stop stop-color="#FDFBF7"/>
<stop offset="0.35" stop-color="#F5F0DF"/>
<stop offset="1" stop-color="#E3D7A9"/>
</linearGradient>
<linearGradient id="paint6_linear" x1="217.696" y1="111.91" x2="233.481" y2="111.91" gradientUnits="userSpaceOnUse">
<stop stop-color="#FDFBF7"/>
<stop offset="0.35" stop-color="#F5F0DF"/>
<stop offset="1" stop-color="#E3D7A9"/>
</linearGradient>
<linearGradient id="paint7_linear" x1="262.568" y1="159.61" x2="278.769" y2="159.61" gradientUnits="userSpaceOnUse">
<stop stop-color="#FDFBF7"/>
<stop offset="0.35" stop-color="#F5F0DF"/>
<stop offset="1" stop-color="#E3D7A9"/>
</linearGradient>
<linearGradient id="paint8_linear" x1="227.357" y1="185.827" x2="243.122" y2="185.827" gradientUnits="userSpaceOnUse">
<stop stop-color="#FDFBF7"/>
<stop offset="0.35" stop-color="#F5F0DF"/>
<stop offset="1" stop-color="#E3D7A9"/>
</linearGradient>
<linearGradient id="paint9_linear" x1="147" y1="243" x2="151" y2="243" gradientUnits="userSpaceOnUse">
<stop stop-color="#FDFBF7"/>
<stop offset="0.35" stop-color="#F5F0DF"/>
<stop offset="1" stop-color="#E3D7A9"/>
</linearGradient>
<linearGradient id="paint10_linear" x1="343" y1="128" x2="379" y2="128" gradientUnits="userSpaceOnUse">
<stop stop-color="#FDFBF7"/>
<stop offset="0.35" stop-color="#F5F0DF"/>
<stop offset="1" stop-color="#E3D7A9"/>
</linearGradient>
<linearGradient id="paint11_linear" x1="60" y1="144" x2="64" y2="144" gradientUnits="userSpaceOnUse">
<stop stop-color="#FDFBF7"/>
<stop offset="0.35" stop-color="#F5F0DF"/>
<stop offset="1" stop-color="#E3D7A9"/>
</linearGradient>
</defs>
</svg>
